Coordinates
version=1
nRows=12
nColumns=24
inDegrees=yes

Units are S.I. units (second, meters, Newtons, ...)
Angles are in degrees.

endheader
time	pelvis_tilt	pelvis_list	pelvis_rotation	pelvis_tx	pelvis_ty	pelvis_tz	hip_flexion_r	hip_adduction_r	hip_rotation_r	knee_angle_r	ankle_angle_r	subtalar_angle_r	mtp_angle_r	hip_flexion_l	hip_adduction_l	hip_rotation_l	knee_angle_l	ankle_angle_l	subtalar_angle_l	mtp_angle_l	lumbar_extension	lumbar_bending	lumbar_rotation
      1.66066667	     -1.72591243	      9.52740063	     -7.29559891	      1.37235604	      1.00147529	      0.28666910	     16.47201576	    -12.67301481	      3.50914697	    -70.27401604	     -7.57955934	    -12.92719072	      4.54802131	     11.35639426	     14.04287401	      5.71872270	    -12.74306168	      2.69498318	    -18.26516620	     -3.64085399	     -9.19435289	     -6.03493657	      3.45381662
      1.66483333	     -1.72970655	      9.27973631	     -7.10722024	      1.37715565	      1.00249997	      0.28620028	     16.97986566	    -12.34745959	      3.33608856	    -70.01771733	     -6.76415770	    -12.78996562	      4.48107925	     10.79628420	     13.85660246	      6.01366561	    -12.35623924	      2.78397904	    -18.18571569	     -3.62715874	     -9.24733456	     -5.67871523	      3.12629433
      1.66900000	     -1.69931999	      9.04743093	     -6.92307442	      1.38197455	      1.00352186	      0.28574190	     17.44731697	    -12.04658495	      3.16352593	    -69.72313282	     -5.95170476	    -12.66736386	      4.40382761	     10.20131815	     13.68538818	      6.29962887	    -11.96044149	      2.84449833	    -18.11841596	     -3.61151669	     -9.33586648	     -5.33532004	      2.71475331
      1.67316667	     -1.71339844	      8.83231220	     -6.73455734	      1.38673307	      1.00442645	      0.28527634	     17.96822985	    -11.76219803	      2.99159153	    -69.39681032	     -5.15171799	    -12.53398594	      4.31863008	      9.66410428	     13.52086873	      6.57678080	    -11.56808790	      2.89576713	    -18.04636162	     -3.59461151	     -9.37509244	     -5.00850766	      2.31688662
      1.67733333	     -1.70257856	      8.61974009	     -6.53141583	      1.39151089	      1.00531598	      0.28481211	     18.44514206	    -11.48825262	      2.80452270	    -69.02767758	     -4.35395276	    -12.43531735	      4.17605744	      9.10059216	     13.35858712	      6.85294998	    -11.17949599	      2.92832486	    -17.97880427	     -3.56887661	     -9.43992725	     -4.68730279	      1.86126607
      1.68150000	     -1.69701949	      8.38485410	     -6.34187961	      1.39633772	      1.00621715	      0.28437530	     18.90719820	    -11.18742894	      2.62179821	    -68.58383470	     -3.62313316	    -12.29528005	      4.08933678	      8.53440733	     13.16395736	      7.11531273	    -10.78160769	      3.01461131	    -17.87681831	     -3.55198780	     -9.49006792	     -4.35062532	      1.55824927
      1.68566667	     -1.69792376	      8.17765103	     -6.13129986	      1.40107640	      1.00701936	      0.28392346	     19.38026011	    -10.92338547	      2.42641156	    -68.12307975	     -2.89220076	    -12.20830266	      3.95099767	      7.98989517	     12.99401462	      7.37209405	    -10.39275836	      3.04919639	    -17.77834353	     -3.52722955	     -9.54431572	     -4.03522304	      1.09419104
      1.68983333	     -1.71588351	      7.96356556	     -5.94009618	      1.40586627	      1.00776473	      0.28349750	     19.86100183	    -10.64516384	      2.25259429	    -67.61142312	     -2.19154023	    -12.07529498	      3.86244142	      7.46383259	     12.80894615	      7.61470759	    -10.01221327	      3.14313186	    -17.66781121	     -3.50840031	     -9.56451493	     -3.72001262	      0.80571685
      1.69400000	     -1.69687021	      7.76357004	     -5.73799764	      1.41063723	      1.00851410	      0.28307033	     20.29570981	    -10.39404300	      2.06464859	    -67.06310215	     -1.53025700	    -11.97768738	      3.75894361	      6.89836995	     12.63736746	      7.85473638	     -9.61349268	      3.19983662	    -17.54612187	     -3.48499174	     -9.62776748	     -3.42159077	      0.41534183
      1.69816667	     -1.70878356	      7.56110335	     -5.53502952	      1.41538240	      1.00917741	      0.28266565	     20.75350824	    -10.12984419	      1.89115718	    -66.47202768	     -0.88707912	    -11.88613872	      3.66916095	      6.37903736	     12.45504820	      8.08547460	     -9.24211135	      3.26956808	    -17.42424025	     -3.46234746	     -9.66763836	     -3.13084220	      0.07721125
      1.70233333	     -1.71263096	      7.39141164	     -5.33698967	      1.42014670	      1.00978402	      0.28226723	     21.20385989	     -9.91107215	      1.71776207	    -65.85473562	     -0.26092847	    -11.80432569	      3.57254077	      5.84283677	     12.30225438	      8.28982908	     -8.84123688	      3.32740137	    -17.28851351	     -3.43685977	     -9.69091820	     -2.86055337	     -0.29235774
      1.70650000	     -1.70788486	      7.21650703	     -5.13272664	      1.42491088	      1.01036633	      0.28189548	     21.62876425	     -9.68298484	      1.54576679	    -65.19226763	      0.31775716	    -11.77839196	      3.44300036	      5.31012488	     12.13879078	      8.48121132	     -8.46172536	      3.37339313	    -17.13667297	     -3.40085366	     -9.73506715	     -2.60353936	     -0.69255543
